<svg
  xmlns="http://www.w3.org/2000/svg"
  data-icon="external-link"
  viewBox="0 0 100 100"
>
  <path
    fill="currentColor"
    d="M83.736 62.178h-6.16a3.08 3.08 0 00-3.079 3.08v21.558H12.904V25.222H40.62a3.08 3.08 0 003.08-3.08v-6.159a3.08 3.08 0 00-3.08-3.08H9.824a9.239 9.239 0 00-9.24 9.24v67.752a9.239 9.239 0 009.24 9.24h67.753a9.239 9.239 0 009.239-9.24V65.258a3.08 3.08 0 00-3.08-3.08zM91.95.585H61.41a5.39 5.39 0 00-5.39 5.39v3.6a5.39 5.39 0 005.542 5.234l12.936-.366-47.916 47.56-.011.012a4.62 4.62 0 000 6.533l4.608 4.59.011.012a4.62 4.62 0 006.527-.018l47.56-47.91-.362 12.939v.15a5.39 5.39 0 005.39 5.39h3.441a5.39 5.39 0 005.39-5.39V7.77A7.185 7.185 0 0091.949.584z"
  />
</svg>